<svg width="50" height="50" viewBox="0 0 50 50" fill="none" xmlns="http://www.w3.org/2000/svg">
<g clip-path="url(#clip0_39_109)">
<rect width="50" height="50" fill="#FFC127"/>
<path d="M42 0H8C3.58172 0 0 3.58172 0 8V42C0 46.4183 3.58172 50 8 50H42C46.4183 50 50 46.4183 50 42V8C50 3.58172 46.4183 0 42 0Z" fill="#FFC127"/>
<path d="M41.252 25.1327C41.252 34.0264 34.0151 41.2618 25.1158 41.2618C22.4467 41.2618 19.8206 40.6027 17.4847 39.3455C17.2017 39.195 16.8613 39.2273 16.6213 39.435L15.5931 40.3376C15.3889 40.5167 15.1023 40.574 14.8407 40.4845C14.5828 40.3985 14.3893 40.1765 14.3356 39.9078L12.4977 31.4152C12.4475 31.1466 12.5407 30.8708 12.7449 30.6881C12.9527 30.509 13.2393 30.4517 13.4973 30.5413L22.1637 33.0342C22.4216 33.1238 22.6151 33.3423 22.6688 33.6109C22.7226 33.8796 22.6294 34.1589 22.4216 34.338L22.1028 34.621C21.637 35.0365 21.8341 35.7959 22.4431 35.9463C23.3137 36.1612 24.2058 36.2687 25.1158 36.2687C31.4893 36.2687 36.6304 30.8923 36.2363 24.4378C35.9031 18.9683 31.5287 14.4946 26.0687 14.0325C19.7955 13.506 14.3965 18.2555 13.9988 24.4091C13.9737 24.8139 13.6405 25.1327 13.2321 25.1327H9.7677C9.55633 25.1327 9.3557 25.0467 9.2124 24.8927C9.06551 24.7422 8.99026 24.5381 9.00101 24.3268C9.20522 20.1933 10.9751 16.3392 13.9809 13.4666C16.9975 10.5868 20.9527 9 25.1158 9C34.0151 9 41.252 16.2353 41.252 25.1327Z" fill="#1F1F1F"/>
<path d="M22.7561 27.6585V17.615H25.8264V24.9757H32.6119V28.0417H23.1394C22.928 28.0417 22.7561 27.8698 22.7561 27.6585Z" fill="#1F1F1F"/>
</g>
<defs>
<clipPath id="clip0_39_109">
<rect width="50" height="50" fill="white"/>
</clipPath>
</defs>
</svg>
